<svg xmlns="http://www.w3.org/2000/svg" viewBox="0 0 603 470">
  <path d="M433.28,455.38 C440.25,441.46 446.51,415.20 449.64,386.83 C452.72,358.84 451.82,269.75 448.42,265.30 C446.08,262.25 445.46,265.14 446.16,275.65 C446.53,281.07 447.16,298.28 447.58,313.91 L448.33,342.32 L440.34,338.06 C416.35,325.28 379.58,290.22 355.58,257.23 C352.27,252.68 349.02,249.16 348.36,249.41 C347.35,249.80 327.82,221.51 324.12,214.31 C323.27,212.65 323.35,210.60 324.48,205.73 C326.63,196.48 326.94,184.50 325.03,184.50 C323.94,184.50 323.25,186.89 322.31,194.00 C320.33,208.95 313.40,228.00 309.94,228.00 C309.42,228.00 309.00,226.25 309.00,224.11 C309.00,217.89 304.50,202.27 299.00,189.40 C294.47,178.82 293.94,176.83 294.20,171.50 C294.44,166.74 294.19,165.50 293.02,165.50 C291.97,165.50 290.92,168.34 289.35,175.50 C282.21,208.10 269.33,229.76 239.22,259.84 C221.65,277.38 215.24,282.53 223.71,272.29 C237.82,255.22 250.33,229.31 254.02,209.50 C255.74,200.24 255.88,186.50 254.27,184.87 C253.59,184.19 252.78,183.89 252.47,184.20 C252.16,184.51 251.71,189.21 251.49,194.63 C250.14,226.61 231.85,261.50 200.36,292.15 C193.05,299.26 170.46,315.79 169.43,314.77 C169.18,314.52 169.75,312.23 170.69,309.69 C172.46,304.93 172.15,303.34 169.65,304.30 C168.03,304.93 163.89,316.73 161.35,328.00 C159.05,338.15 158.95,364.87 161.18,373.79 L162.75,380.09 L160.73,378.29 C157.45,375.39 152.44,366.96 150.00,360.25 C147.91,354.49 147.77,352.78 148.21,338.96 C148.68,324.40 148.31,321.66 146.24,324.26 C143.44,327.80 142.96,354.97 145.45,370.23 C147.91,385.40 152.05,398.97 154.23,399.04 C155.57,399.08 168.00,428.71 168.49,433.04 C168.64,434.44 171.35,440.71 174.50,446.99 L180.22,458.41 L176.36,455.53 C167.86,449.20 161.42,443.26 157.21,437.84 C154.72,434.63 152.23,432.36 151.51,432.63 C150.26,433.11 140.41,420.74 132.54,408.80 L128.78,403.09 L129.89,396.71 C131.51,387.38 131.36,385.00 129.14,385.00 C127.58,385.00 127.17,386.06 126.62,391.39 C125.45,402.80 120.47,414.30 113.81,420.95 C109.78,424.98 102.13,428.62 95.77,429.54 L91.05,430.22 L93.94,424.36 C95.52,421.14 97.33,415.80 97.95,412.50 C98.57,409.20 100.03,403.44 101.18,399.69 C102.66,394.91 102.97,392.57 102.23,391.83 C100.59,390.19 99.35,391.57 98.15,396.34 C96.60,402.49 91.22,410.05 86.50,412.71 C80.93,415.85 80.56,415.59 83.94,410.93 C89.85,402.77 92.10,388.93 89.19,378.62 C88.34,375.61 88.42,373.50 89.55,369.16 C92.34,358.42 90.88,343.56 85.87,331.92 C84.71,329.21 83.59,327.00 83.39,327.00 C83.18,327.00 80.92,328.60 78.36,330.56 C65.36,340.48 50.08,343.28 32.27,339.01 C18.74,335.77 9.00,330.56 9.00,326.57 C9.00,326.25 10.36,326.00 12.03,326.00 C18.66,326.00 34.00,319.36 49.28,309.89 C53.61,307.20 57.59,305.00 58.11,305.00 C59.78,305.00 68.39,300.15 71.14,297.67 C76.02,293.26 83.00,282.29 83.00,279.03 C83.00,278.63 80.64,279.12 77.75,280.12 C66.26,284.09 45.67,281.88 25.00,274.45 C12.62,270.00 10.82,268.77 7.32,262.34 L4.13,256.50 L9.82,256.82 C12.94,257.00 18.81,256.45 22.87,255.60 C33.60,253.35 50.17,244.70 48.60,242.16 C48.36,241.77 50.26,239.68 52.83,237.52 C55.40,235.36 59.30,231.48 61.50,228.90 C63.70,226.33 66.29,223.99 67.26,223.70 C70.05,222.88 74.47,212.02 80.36,191.50 C83.36,181.05 86.78,169.96 87.94,166.85 C90.77,159.33 96.61,150.61 102.88,144.54 C107.56,140.00 109.49,136.00 107.00,136.00 C106.45,136.00 103.03,138.99 99.39,142.65 L92.78,149.29 L87.14,147.53 C79.30,145.08 64.02,137.36 64.01,135.84 C64.00,134.78 75.38,134.30 76.74,135.31 C79.28,137.19 107.91,123.45 124.28,112.49 L132.46,107.01 L138.48,112.93 C154.66,128.82 181.16,144.15 202.50,149.95 C232.91,158.21 277.69,158.61 312.39,150.92 C338.99,145.03 376.25,129.11 387.53,118.81 C399.06,108.28 404.23,96.64 404.39,80.83 C404.45,75.51 404.22,70.88 403.88,70.55 C403.55,70.22 399.83,71.27 395.61,72.89 C377.70,79.79 359.93,82.41 335.71,81.73 C310.89,81.03 290.77,76.90 266.63,67.57 C253.30,62.41 233.00,53.00 233.00,51.97 C233.00,50.21 255.66,47.79 268.96,48.14 C280.49,48.45 282.50,48.28 282.50,47.00 C282.50,45.96 280.75,45.20 276.72,44.50 C271.53,43.60 270.56,43.02 267.22,38.84 C260.40,30.30 248.59,21.70 232.00,13.18 L221.50,7.80 L235.00,8.28 C251.13,8.86 257.74,10.68 267.68,17.29 C271.44,19.79 278.48,25.93 283.33,30.93 C288.17,35.94 292.56,39.77 293.07,39.46 C294.47,38.59 294.19,36.40 292.50,35.00 C290.78,33.57 290.45,31.54 292.10,32.56 C292.72,32.94 295.13,31.24 297.53,28.74 C302.73,23.31 310.38,18.80 318.50,16.39 C325.08,14.43 343.67,13.85 352.38,15.33 L357.26,16.16 L349.31,20.03 C343.00,23.10 339.80,25.53 333.74,31.88 C326.93,39.01 325.46,40.05 320.07,41.56 C313.80,43.32 310.98,45.38 312.61,47.01 C313.18,47.58 316.05,47.09 320.02,45.76 C325.68,43.86 328.71,43.59 344.00,43.58 C362.86,43.57 366.69,44.18 385.00,50.12 C397.65,54.22 416.89,63.47 427.72,70.66 C432.55,73.87 437.40,76.54 438.50,76.61 C439.60,76.67 446.12,80.33 453.00,84.73 C459.88,89.13 467.80,94.02 470.60,95.58 C473.41,97.14 476.11,99.32 476.60,100.42 C477.56,102.57 489.62,108.94 502.24,113.96 C514.36,118.77 527.65,122.04 537.86,122.70 L547.21,123.31 L538.87,128.64 C525.65,137.10 509.19,143.00 498.86,143.00 C494.43,143.00 491.55,142.21 485.54,139.36 C479.81,136.64 477.59,136.01 476.74,136.86 C475.15,138.45 476.09,139.17 486.79,144.51 C498.39,150.31 510.63,159.45 516.61,166.79 C523.30,175.01 529.30,187.75 536.53,209.15 C543.09,228.57 546.43,236.00 548.60,236.00 C549.28,236.00 550.79,237.54 551.95,239.42 C553.12,241.31 556.76,245.34 560.06,248.39 C568.95,256.63 577.89,258.75 590.00,255.50 C593.02,254.69 595.60,254.02 595.72,254.01 C595.84,254.01 595.67,254.70 595.34,255.55 C594.52,257.70 587.11,261.27 576.49,264.64 C568.63,267.13 565.94,267.49 555.15,267.49 L542.81,267.50 L543.33,271.41 C544.27,278.46 549.61,283.41 559.77,286.66 C564.21,288.09 568.66,288.50 579.50,288.50 C587.20,288.50 595.23,288.13 597.34,287.69 C600.94,286.93 601.13,287.01 600.51,288.98 C599.58,291.89 589.92,301.49 581.53,307.83 C563.23,321.68 543.27,325.55 526.63,318.49 C524.87,317.74 524.80,318.15 525.44,326.10 C526.30,336.71 528.63,351.15 530.44,357.00 C531.20,359.48 532.12,366.20 532.47,371.96 C533.28,385.05 535.47,396.73 538.51,404.21 C540.59,409.34 540.66,409.89 539.08,409.04 C535.65,407.21 526.05,395.92 522.46,389.49 C520.46,385.92 518.44,383.00 517.97,383.00 C514.92,383.00 517.18,389.20 523.46,398.02 C526.10,401.74 526.79,403.86 527.35,409.89 C527.76,414.29 528.97,419.20 530.37,422.12 C531.66,424.80 532.53,427.00 532.31,427.00 C531.07,427.00 522.63,422.14 517.24,418.32 C509.98,413.17 502.61,404.70 497.62,395.77 C493.51,388.41 488.41,373.61 487.53,366.50 C486.28,356.37 485.91,355.00 484.45,355.00 C481.20,355.00 484.77,378.95 489.32,387.63 C490.71,390.30 490.60,390.85 487.27,397.48 C481.10,409.78 466.00,431.67 464.63,430.30 C464.28,429.95 458.03,435.50 450.75,442.63 C443.46,449.76 436.00,456.64 434.17,457.92 L430.84,460.25 L433.28,455.38 Z M278.50,427.03 C265.68,426.17 252.01,424.34 229.48,420.45 C213.34,417.66 205.00,415.40 205.00,413.81 C205.00,412.43 216.52,413.12 249.00,416.45 C291.97,420.86 301.38,421.30 338.47,420.65 C357.74,420.32 377.47,419.54 382.33,418.94 C390.15,417.96 393.23,418.11 391.92,419.41 C391.56,419.76 385.22,420.88 368.42,423.54 C347.77,426.81 301.82,428.60 278.50,427.03 Z M396.00,418.00 C396.00,417.45 396.45,417.00 397.00,417.00 C397.55,417.00 398.00,417.45 398.00,418.00 C398.00,418.55 397.55,419.00 397.00,419.00 C396.45,419.00 396.00,418.55 396.00,418.00 Z M219.81,383.98 C211.90,383.03 203.06,380.58 197.74,377.86 C187.19,372.49 182.35,364.66 174.34,340.06 C171.92,332.63 169.28,325.55 168.47,324.32 C166.66,321.54 166.59,320.00 168.30,320.00 C169.01,320.00 172.57,318.04 176.21,315.65 C182.23,311.70 182.75,311.52 181.92,313.72 C180.13,318.41 180.89,332.31 183.50,342.62 C189.29,365.53 196.67,373.20 216.18,376.60 C244.72,381.56 266.78,370.67 277.69,346.22 C284.28,331.44 285.84,321.46 282.54,315.09 C277.50,305.32 257.84,298.83 233.50,298.89 C221.26,298.92 200.93,300.95 196.50,302.59 C195.40,303.00 197.73,300.78 201.68,297.67 L208.85,292.00 L220.38,292.00 C233.78,292.00 248.61,293.79 270.71,298.09 C298.01,303.39 307.03,303.19 344.07,296.49 C354.74,294.56 367.09,292.70 371.51,292.36 L379.56,291.74 L382.30,295.33 L385.04,298.92 L371.27,298.91 C356.95,298.90 348.47,300.17 337.50,303.98 C325.36,308.19 320.07,314.20 320.02,323.82 C319.97,333.34 328.87,353.42 337.17,362.49 C346.70,372.92 363.93,378.93 380.46,377.59 C405.93,375.52 414.71,367.63 421.36,340.83 C423.43,332.48 423.58,332.22 425.51,333.65 C426.60,334.47 428.15,335.51 428.94,335.96 C430.16,336.67 430.03,338.02 428.09,345.12 C422.78,364.50 414.12,374.52 397.38,380.69 C388.02,384.13 371.56,384.99 360.79,382.60 C349.64,380.12 339.85,375.03 333.17,368.24 C325.90,360.85 321.97,354.08 317.04,340.46 C312.06,326.69 309.53,324.00 301.56,324.00 C294.68,324.00 293.23,325.69 289.12,338.45 C285.27,350.40 279.20,360.65 271.00,369.06 C263.95,376.30 257.20,380.26 248.23,382.44 C240.63,384.29 228.08,384.97 219.81,383.98 Z M216.00,286.62 C216.00,286.41 216.79,285.63 217.75,284.87 C219.34,283.63 219.37,283.66 218.13,285.25 C216.82,286.92 216.00,287.45 216.00,286.62 Z M223.00,280.50 C224.29,279.12 225.57,278.00 225.85,278.00 C226.12,278.00 225.29,279.12 224.00,280.50 C222.71,281.88 221.43,283.00 221.15,283.00 C220.88,283.00 221.71,281.88 223.00,280.50 Z" fill="#000000" fill-rule="evenodd"/>
</svg>
